<svg id="visual" viewBox="0 0 1920 1080" width="1920" height="1080" xmlns="http://www.w3.org/2000/svg" xmlns:xlink="http://www.w3.org/1999/xlink" version="1.1"><rect x="0" y="0" width="1920" height="1080" fill="#ffffff"></rect><path d="M1496 0L1505.7 7.8C1515.3 15.7 1534.7 31.3 1551.5 47C1568.3 62.7 1582.7 78.3 1583.8 94C1585 109.7 1573 125.3 1557.3 141C1541.7 156.7 1522.3 172.3 1482 188C1441.7 203.7 1380.3 219.3 1336.7 235C1293 250.7 1267 266.3 1296.5 282C1326 297.7 1411 313.3 1421 329C1431 344.7 1366 360.3 1355.8 376C1345.7 391.7 1390.3 407.3 1442.2 423C1494 438.7 1553 454.3 1561 470C1569 485.7 1526 501.3 1511.5 516.8C1497 532.3 1511 547.7 1491.7 563.2C1472.3 578.7 1419.7 594.3 1406.5 610C1393.3 625.7 1419.7 641.3 1409.7 657C1399.7 672.7 1353.3 688.3 1322.3 704C1291.3 719.7 1275.7 735.3 1315.5 751C1355.3 766.7 1450.7 782.3 1455.8 798C1461 813.7 1376 829.3 1330.2 845C1284.3 860.7 1277.7 876.3 1322.3 892C1367 907.7 1463 923.3 1455 939C1447 954.7 1335 970.3 1300.5 986C1266 1001.7 1309 1017.3 1340 1033C1371 1048.7 1390 1064.3 1399.5 1072.2L1409 1080L0 1080L0 1072.2C0 1064.3 0 1048.7 0 1033C0 1017.3 0 1001.7 0 986C0 970.3 0 954.7 0 939C0 923.3 0 907.7 0 892C0 876.3 0 860.7 0 845C0 829.3 0 813.7 0 798C0 782.3 0 766.7 0 751C0 735.3 0 719.7 0 704C0 688.3 0 672.7 0 657C0 641.3 0 625.7 0 610C0 594.3 0 578.7 0 563.2C0 547.7 0 532.3 0 516.8C0 501.3 0 485.7 0 470C0 454.3 0 438.7 0 423C0 407.3 0 391.7 0 376C0 360.3 0 344.7 0 329C0 313.3 0 297.7 0 282C0 266.3 0 250.7 0 235C0 219.3 0 203.7 0 188C0 172.3 0 156.7 0 141C0 125.3 0 109.7 0 94C0 78.3 0 62.7 0 47C0 31.3 0 15.7 0 7.8L0 0Z" fill="#d79a96"></path><path d="M1155 0L1164.8 7.8C1174.7 15.7 1194.3 31.3 1195.3 47C1196.3 62.7 1178.7 78.3 1186.2 94C1193.7 109.7 1226.3 125.3 1230.3 141C1234.3 156.7 1209.7 172.3 1189.7 188C1169.7 203.7 1154.3 219.3 1149 235C1143.7 250.7 1148.3 266.3 1162.8 282C1177.3 297.7 1201.7 313.3 1199 329C1196.3 344.7 1166.7 360.3 1168.2 376C1169.7 391.7 1202.3 407.3 1203.7 423C1205 438.7 1175 454.3 1194.7 470C1214.3 485.7 1283.7 501.3 1314.8 516.8C1346 532.3 1339 547.7 1327.5 563.2C1316 578.7 1300 594.3 1280.8 610C1261.7 625.7 1239.3 641.3 1268.2 657C1297 672.7 1377 688.3 1383.2 704C1389.3 719.7 1321.7 735.3 1297.7 751C1273.7 766.7 1293.3 782.3 1308.8 798C1324.3 813.7 1335.7 829.3 1351.8 845C1368 860.7 1389 876.3 1358.5 892C1328 907.7 1246 923.3 1228.8 939C1211.7 954.7 1259.3 970.3 1288.2 986C1317 1001.7 1327 1017.3 1359.3 1033C1391.7 1048.7 1446.3 1064.3 1473.7 1072.2L1501 1080L0 1080L0 1072.2C0 1064.3 0 1048.7 0 1033C0 1017.3 0 1001.7 0 986C0 970.3 0 954.7 0 939C0 923.3 0 907.7 0 892C0 876.3 0 860.7 0 845C0 829.3 0 813.7 0 798C0 782.3 0 766.7 0 751C0 735.3 0 719.7 0 704C0 688.3 0 672.7 0 657C0 641.3 0 625.7 0 610C0 594.3 0 578.7 0 563.2C0 547.7 0 532.3 0 516.8C0 501.3 0 485.7 0 470C0 454.3 0 438.7 0 423C0 407.3 0 391.7 0 376C0 360.3 0 344.7 0 329C0 313.3 0 297.7 0 282C0 266.3 0 250.7 0 235C0 219.3 0 203.7 0 188C0 172.3 0 156.7 0 141C0 125.3 0 109.7 0 94C0 78.3 0 62.7 0 47C0 31.3 0 15.7 0 7.8L0 0Z" fill="#c58986"></path><path d="M1182 0L1181.7 7.8C1181.3 15.7 1180.7 31.3 1166.2 47C1151.7 62.7 1123.3 78.3 1130 94C1136.7 109.7 1178.3 125.3 1167.5 141C1156.7 156.7 1093.3 172.3 1066.8 188C1040.3 203.7 1050.7 219.3 1094.3 235C1138 250.7 1215 266.3 1264.2 282C1313.3 297.7 1334.7 313.3 1328.2 329C1321.7 344.7 1287.3 360.3 1241 376C1194.7 391.7 1136.3 407.3 1125.5 423C1114.7 438.7 1151.3 454.3 1162 470C1172.7 485.7 1157.3 501.3 1157.7 516.8C1158 532.3 1174 547.7 1173.7 563.2C1173.3 578.7 1156.7 594.3 1142 610C1127.3 625.7 1114.7 641.3 1108.3 657C1102 672.7 1102 688.3 1124.2 704C1146.3 719.7 1190.7 735.3 1238.2 751C1285.7 766.7 1336.3 782.3 1365.2 798C1394 813.7 1401 829.3 1363.2 845C1325.3 860.7 1242.7 876.3 1197 892C1151.3 907.7 1142.7 923.3 1181.8 939C1221 954.7 1308 970.3 1333.5 986C1359 1001.7 1323 1017.3 1300.5 1033C1278 1048.7 1269 1064.3 1264.5 1072.2L1260 1080L0 1080L0 1072.2C0 1064.3 0 1048.7 0 1033C0 1017.3 0 1001.7 0 986C0 970.3 0 954.7 0 939C0 923.3 0 907.7 0 892C0 876.3 0 860.7 0 845C0 829.3 0 813.7 0 798C0 782.3 0 766.7 0 751C0 735.3 0 719.7 0 704C0 688.3 0 672.7 0 657C0 641.3 0 625.7 0 610C0 594.3 0 578.7 0 563.2C0 547.7 0 532.3 0 516.8C0 501.3 0 485.7 0 470C0 454.3 0 438.7 0 423C0 407.3 0 391.7 0 376C0 360.3 0 344.7 0 329C0 313.3 0 297.7 0 282C0 266.3 0 250.7 0 235C0 219.3 0 203.7 0 188C0 172.3 0 156.7 0 141C0 125.3 0 109.7 0 94C0 78.3 0 62.7 0 47C0 31.3 0 15.7 0 7.8L0 0Z" fill="#b37976"></path><path d="M1278 0L1219.3 7.8C1160.7 15.7 1043.3 31.3 990.3 47C937.3 62.7 948.7 78.3 981.7 94C1014.7 109.7 1069.3 125.3 1110.3 141C1151.3 156.7 1178.7 172.3 1196.2 188C1213.7 203.7 1221.3 219.3 1226 235C1230.7 250.7 1232.3 266.3 1184.5 282C1136.7 297.7 1039.3 313.3 993.7 329C948 344.7 954 360.3 966.3 376C978.7 391.7 997.3 407.3 1004.3 423C1011.3 438.7 1006.7 454.3 1013.3 470C1020 485.7 1038 501.3 1032.7 516.8C1027.3 532.3 998.7 547.7 1024.3 563.2C1050 578.7 1130 594.3 1181 610C1232 625.7 1254 641.3 1256.8 657C1259.7 672.7 1243.3 688.3 1236.5 704C1229.7 719.7 1232.3 735.3 1229 751C1225.7 766.7 1216.3 782.3 1218 798C1219.7 813.7 1232.3 829.3 1239.8 845C1247.3 860.7 1249.7 876.3 1253.8 892C1258 907.7 1264 923.3 1257.2 939C1250.3 954.7 1230.7 970.3 1180 986C1129.3 1001.7 1047.7 1017.3 1020.2 1033C992.7 1048.7 1019.3 1064.3 1032.7 1072.2L1046 1080L0 1080L0 1072.2C0 1064.3 0 1048.7 0 1033C0 1017.3 0 1001.7 0 986C0 970.3 0 954.7 0 939C0 923.3 0 907.7 0 892C0 876.3 0 860.7 0 845C0 829.3 0 813.7 0 798C0 782.3 0 766.7 0 751C0 735.3 0 719.7 0 704C0 688.3 0 672.7 0 657C0 641.3 0 625.7 0 610C0 594.3 0 578.7 0 563.2C0 547.7 0 532.3 0 516.8C0 501.3 0 485.7 0 470C0 454.3 0 438.7 0 423C0 407.3 0 391.7 0 376C0 360.3 0 344.7 0 329C0 313.3 0 297.7 0 282C0 266.3 0 250.7 0 235C0 219.3 0 203.7 0 188C0 172.3 0 156.7 0 141C0 125.3 0 109.7 0 94C0 78.3 0 62.7 0 47C0 31.3 0 15.7 0 7.8L0 0Z" fill="#a26966"></path><path d="M1091 0L1082.7 7.8C1074.3 15.7 1057.7 31.3 1063.7 47C1069.7 62.7 1098.3 78.3 1096.7 94C1095 109.7 1063 125.3 1033 141C1003 156.7 975 172.3 971 188C967 203.7 987 219.3 989.5 235C992 250.7 977 266.3 970.2 282C963.3 297.7 964.7 313.3 954.2 329C943.7 344.7 921.3 360.3 915.3 376C909.3 391.7 919.7 407.3 904.8 423C890 438.7 850 454.3 875.8 470C901.7 485.7 993.3 501.3 1007 516.8C1020.7 532.3 956.3 547.7 927 563.2C897.7 578.7 903.3 594.3 904.7 610C906 625.7 903 641.3 890 657C877 672.7 854 688.3 838.7 704C823.3 719.7 815.7 735.3 861.2 751C906.7 766.7 1005.3 782.3 1024.8 798C1044.3 813.7 984.7 829.3 935.7 845C886.7 860.7 848.3 876.3 832.5 892C816.7 907.7 823.3 923.3 823.2 939C823 954.7 816 970.3 812.7 986C809.3 1001.7 809.7 1017.3 814 1033C818.3 1048.7 826.7 1064.3 830.8 1072.2L835 1080L0 1080L0 1072.2C0 1064.3 0 1048.7 0 1033C0 1017.3 0 1001.7 0 986C0 970.3 0 954.7 0 939C0 923.3 0 907.7 0 892C0 876.3 0 860.7 0 845C0 829.3 0 813.7 0 798C0 782.3 0 766.7 0 751C0 735.3 0 719.7 0 704C0 688.3 0 672.7 0 657C0 641.3 0 625.7 0 610C0 594.3 0 578.7 0 563.2C0 547.7 0 532.3 0 516.8C0 501.3 0 485.7 0 470C0 454.3 0 438.7 0 423C0 407.3 0 391.7 0 376C0 360.3 0 344.7 0 329C0 313.3 0 297.7 0 282C0 266.3 0 250.7 0 235C0 219.3 0 203.7 0 188C0 172.3 0 156.7 0 141C0 125.3 0 109.7 0 94C0 78.3 0 62.7 0 47C0 31.3 0 15.7 0 7.8L0 0Z" fill="#905a57"></path><path d="M850 0L825.7 7.8C801.3 15.7 752.7 31.3 739 47C725.3 62.7 746.7 78.3 771.5 94C796.3 109.7 824.7 125.3 829 141C833.3 156.7 813.7 172.3 817.2 188C820.7 203.7 847.3 219.3 843.8 235C840.3 250.7 806.7 266.3 786 282C765.3 297.7 757.7 313.3 780 329C802.3 344.7 854.7 360.3 897.5 376C940.3 391.7 973.7 407.3 984 423C994.3 438.7 981.7 454.3 973.5 470C965.3 485.7 961.7 501.3 967.5 516.8C973.3 532.3 988.7 547.7 974.3 563.2C960 578.7 916 594.3 875 610C834 625.7 796 641.3 813.2 657C830.3 672.7 902.7 688.3 896.2 704C889.7 719.7 804.3 735.3 769.2 751C734 766.7 749 782.3 768.2 798C787.3 813.7 810.7 829.3 841.8 845C873 860.7 912 876.3 920 892C928 907.7 905 923.3 905.3 939C905.7 954.7 929.3 970.3 909.2 986C889 1001.7 825 1017.3 832.8 1033C840.7 1048.7 920.3 1064.3 960.2 1072.2L1000 1080L0 1080L0 1072.2C0 1064.3 0 1048.7 0 1033C0 1017.3 0 1001.7 0 986C0 970.3 0 954.7 0 939C0 923.3 0 907.7 0 892C0 876.3 0 860.7 0 845C0 829.3 0 813.7 0 798C0 782.3 0 766.7 0 751C0 735.3 0 719.7 0 704C0 688.3 0 672.7 0 657C0 641.3 0 625.7 0 610C0 594.3 0 578.7 0 563.2C0 547.7 0 532.3 0 516.8C0 501.3 0 485.7 0 470C0 454.3 0 438.7 0 423C0 407.3 0 391.7 0 376C0 360.3 0 344.7 0 329C0 313.3 0 297.7 0 282C0 266.3 0 250.7 0 235C0 219.3 0 203.7 0 188C0 172.3 0 156.7 0 141C0 125.3 0 109.7 0 94C0 78.3 0 62.7 0 47C0 31.3 0 15.7 0 7.8L0 0Z" fill="#7f4a48"></path><path d="M694 0L701.3 7.8C708.7 15.7 723.3 31.3 748.8 47C774.3 62.7 810.7 78.3 822.3 94C834 109.7 821 125.3 821.8 141C822.7 156.7 837.3 172.3 802.2 188C767 203.7 682 219.3 665.3 235C648.7 250.7 700.3 266.3 707.3 282C714.3 297.7 676.7 313.3 657.5 329C638.3 344.7 637.7 360.3 630.7 376C623.7 391.7 610.3 407.3 612.7 423C615 438.7 633 454.3 679.8 470C726.7 485.7 802.3 501.3 820 516.8C837.7 532.3 797.3 547.7 759.8 563.2C722.3 578.7 687.7 594.3 686.3 610C685 625.7 717 641.3 753.2 657C789.3 672.7 829.7 688.3 827.2 704C824.7 719.7 779.3 735.3 754.8 751C730.3 766.7 726.7 782.3 721.8 798C717 813.7 711 829.3 731.2 845C751.3 860.7 797.7 876.3 802.7 892C807.7 907.7 771.3 923.3 735.8 939C700.3 954.7 665.7 970.3 675 986C684.3 1001.7 737.7 1017.3 779.5 1033C821.3 1048.7 851.7 1064.3 866.8 1072.2L882 1080L0 1080L0 1072.2C0 1064.3 0 1048.7 0 1033C0 1017.3 0 1001.7 0 986C0 970.3 0 954.7 0 939C0 923.3 0 907.7 0 892C0 876.3 0 860.7 0 845C0 829.3 0 813.7 0 798C0 782.3 0 766.7 0 751C0 735.3 0 719.7 0 704C0 688.3 0 672.7 0 657C0 641.3 0 625.7 0 610C0 594.3 0 578.7 0 563.2C0 547.7 0 532.3 0 516.8C0 501.3 0 485.7 0 470C0 454.3 0 438.7 0 423C0 407.3 0 391.7 0 376C0 360.3 0 344.7 0 329C0 313.3 0 297.7 0 282C0 266.3 0 250.7 0 235C0 219.3 0 203.7 0 188C0 172.3 0 156.7 0 141C0 125.3 0 109.7 0 94C0 78.3 0 62.7 0 47C0 31.3 0 15.7 0 7.8L0 0Z" fill="#6f3c3a"></path><path d="M655 0L646.7 7.8C638.3 15.7 621.7 31.3 635.7 47C649.7 62.7 694.3 78.3 695.2 94C696 109.7 653 125.3 650.7 141C648.3 156.7 686.7 172.3 691.7 188C696.7 203.7 668.3 219.3 650.8 235C633.3 250.7 626.7 266.3 637.3 282C648 297.7 676 313.3 690.8 329C705.7 344.7 707.3 360.3 708.7 376C710 391.7 711 407.3 710.3 423C709.7 438.7 707.3 454.3 683.8 470C660.3 485.7 615.7 501.3 595 516.8C574.3 532.3 577.7 547.7 577.2 563.2C576.7 578.7 572.3 594.3 594.2 610C616 625.7 664 641.3 674.8 657C685.7 672.7 659.3 688.3 641.2 704C623 719.7 613 735.3 617.2 751C621.3 766.7 639.7 782.3 661.7 798C683.7 813.7 709.3 829.3 720.5 845C731.7 860.7 728.3 876.3 687.7 892C647 907.7 569 923.3 544 939C519 954.7 547 970.3 588.5 986C630 1001.7 685 1017.3 680.3 1033C675.7 1048.7 611.3 1064.3 579.2 1072.2L547 1080L0 1080L0 1072.2C0 1064.3 0 1048.7 0 1033C0 1017.3 0 1001.7 0 986C0 970.3 0 954.7 0 939C0 923.3 0 907.7 0 892C0 876.3 0 860.7 0 845C0 829.3 0 813.7 0 798C0 782.3 0 766.7 0 751C0 735.3 0 719.7 0 704C0 688.3 0 672.7 0 657C0 641.3 0 625.7 0 610C0 594.3 0 578.7 0 563.2C0 547.7 0 532.3 0 516.8C0 501.3 0 485.7 0 470C0 454.3 0 438.7 0 423C0 407.3 0 391.7 0 376C0 360.3 0 344.7 0 329C0 313.3 0 297.7 0 282C0 266.3 0 250.7 0 235C0 219.3 0 203.7 0 188C0 172.3 0 156.7 0 141C0 125.3 0 109.7 0 94C0 78.3 0 62.7 0 47C0 31.3 0 15.7 0 7.8L0 0Z" fill="#5e2d2c"></path><path d="M490 0L508.3 7.8C526.7 15.7 563.3 31.3 562.2 47C561 62.7 522 78.3 515.2 94C508.3 109.7 533.7 125.3 525.8 141C518 156.7 477 172.3 478 188C479 203.7 522 219.3 546.7 235C571.3 250.7 577.7 266.3 558.5 282C539.3 297.7 494.7 313.3 484.2 329C473.7 344.7 497.3 360.3 516 376C534.7 391.7 548.3 407.3 559.7 423C571 438.7 580 454.3 577.5 470C575 485.7 561 501.3 546.2 516.8C531.3 532.3 515.7 547.7 519.5 563.2C523.3 578.7 546.7 594.3 541.5 610C536.3 625.7 502.7 641.3 489.7 657C476.7 672.7 484.3 688.3 494.5 704C504.7 719.7 517.3 735.3 530.2 751C543 766.7 556 782.3 568.8 798C581.7 813.7 594.3 829.3 599.8 845C605.3 860.7 603.7 876.3 582.2 892C560.7 907.7 519.3 923.3 509.8 939C500.3 954.7 522.7 970.3 535.2 986C547.7 1001.7 550.3 1017.3 530.8 1033C511.3 1048.7 469.7 1064.3 448.8 1072.2L428 1080L0 1080L0 1072.2C0 1064.3 0 1048.7 0 1033C0 1017.3 0 1001.7 0 986C0 970.3 0 954.7 0 939C0 923.3 0 907.7 0 892C0 876.3 0 860.7 0 845C0 829.3 0 813.7 0 798C0 782.3 0 766.7 0 751C0 735.3 0 719.7 0 704C0 688.3 0 672.7 0 657C0 641.3 0 625.7 0 610C0 594.3 0 578.7 0 563.2C0 547.7 0 532.3 0 516.8C0 501.3 0 485.7 0 470C0 454.3 0 438.7 0 423C0 407.3 0 391.7 0 376C0 360.3 0 344.7 0 329C0 313.3 0 297.7 0 282C0 266.3 0 250.7 0 235C0 219.3 0 203.7 0 188C0 172.3 0 156.7 0 141C0 125.3 0 109.7 0 94C0 78.3 0 62.7 0 47C0 31.3 0 15.7 0 7.8L0 0Z" fill="#4e1f1f"></path><path d="M402 0L383.2 7.8C364.3 15.7 326.7 31.3 324.8 47C323 62.7 357 78.3 364.8 94C372.7 109.7 354.3 125.3 341.8 141C329.3 156.7 322.7 172.3 343.8 188C365 203.7 414 219.3 441.3 235C468.7 250.7 474.3 266.3 473.7 282C473 297.7 466 313.3 450.3 329C434.7 344.7 410.3 360.3 393 376C375.7 391.7 365.3 407.3 362.3 423C359.3 438.7 363.7 454.3 381 470C398.3 485.7 428.7 501.3 426.8 516.8C425 532.3 391 547.7 393.7 563.2C396.3 578.7 435.7 594.3 442.5 610C449.3 625.7 423.7 641.3 401.2 657C378.7 672.7 359.3 688.3 368 704C376.7 719.7 413.3 735.3 405.5 751C397.7 766.7 345.3 782.3 321.7 798C298 813.7 303 829.3 323.5 845C344 860.7 380 876.3 390.2 892C400.3 907.7 384.7 923.3 367.7 939C350.7 954.7 332.3 970.3 345.8 986C359.3 1001.7 404.7 1017.3 407.8 1033C411 1048.7 372 1064.3 352.5 1072.2L333 1080L0 1080L0 1072.2C0 1064.3 0 1048.7 0 1033C0 1017.3 0 1001.7 0 986C0 970.3 0 954.7 0 939C0 923.3 0 907.7 0 892C0 876.3 0 860.7 0 845C0 829.3 0 813.7 0 798C0 782.3 0 766.7 0 751C0 735.3 0 719.7 0 704C0 688.3 0 672.7 0 657C0 641.3 0 625.7 0 610C0 594.3 0 578.7 0 563.2C0 547.7 0 532.3 0 516.8C0 501.3 0 485.7 0 470C0 454.3 0 438.7 0 423C0 407.3 0 391.7 0 376C0 360.3 0 344.7 0 329C0 313.3 0 297.7 0 282C0 266.3 0 250.7 0 235C0 219.3 0 203.7 0 188C0 172.3 0 156.7 0 141C0 125.3 0 109.7 0 94C0 78.3 0 62.7 0 47C0 31.3 0 15.7 0 7.8L0 0Z" fill="#3f1112"></path><path d="M210 0L220.7 7.8C231.3 15.7 252.7 31.3 250.8 47C249 62.7 224 78.3 234.7 94C245.3 109.7 291.7 125.3 305.5 141C319.3 156.7 300.7 172.3 297.7 188C294.7 203.7 307.3 219.3 301.3 235C295.3 250.7 270.7 266.3 251.5 282C232.3 297.7 218.7 313.3 208.7 329C198.7 344.7 192.3 360.3 189.2 376C186 391.7 186 407.3 197.7 423C209.3 438.7 232.7 454.3 251.8 470C271 485.7 286 501.3 281.2 516.8C276.3 532.3 251.7 547.7 260.3 563.2C269 578.7 311 594.3 328.5 610C346 625.7 339 641.3 332.2 657C325.3 672.7 318.7 688.3 317.7 704C316.7 719.7 321.3 735.3 314.2 751C307 766.7 288 782.3 274.8 798C261.7 813.7 254.3 829.3 254.7 845C255 860.7 263 876.3 255 892C247 907.7 223 923.3 215.7 939C208.3 954.7 217.7 970.3 222 986C226.3 1001.7 225.7 1017.3 234.3 1033C243 1048.7 261 1064.3 270 1072.2L279 1080L0 1080L0 1072.2C0 1064.3 0 1048.7 0 1033C0 1017.3 0 1001.7 0 986C0 970.3 0 954.7 0 939C0 923.3 0 907.7 0 892C0 876.3 0 860.7 0 845C0 829.3 0 813.7 0 798C0 782.3 0 766.7 0 751C0 735.3 0 719.7 0 704C0 688.3 0 672.7 0 657C0 641.3 0 625.7 0 610C0 594.3 0 578.7 0 563.2C0 547.7 0 532.3 0 516.8C0 501.3 0 485.7 0 470C0 454.3 0 438.7 0 423C0 407.3 0 391.7 0 376C0 360.3 0 344.7 0 329C0 313.3 0 297.7 0 282C0 266.3 0 250.7 0 235C0 219.3 0 203.7 0 188C0 172.3 0 156.7 0 141C0 125.3 0 109.7 0 94C0 78.3 0 62.7 0 47C0 31.3 0 15.7 0 7.8L0 0Z" fill="#300300"></path><path d="M88 0L87.2 7.8C86.3 15.7 84.7 31.3 90.2 47C95.7 62.7 108.3 78.3 110.3 94C112.3 109.7 103.7 125.3 97.3 141C91 156.7 87 172.3 107 188C127 203.7 171 219.3 186.5 235C202 250.7 189 266.3 181.8 282C174.7 297.7 173.3 313.3 159.3 329C145.3 344.7 118.7 360.3 115.8 376C113 391.7 134 407.3 155 423C176 438.7 197 454.3 195 470C193 485.7 168 501.3 159.2 516.8C150.3 532.3 157.7 547.7 168.2 563.2C178.7 578.7 192.3 594.3 192 610C191.7 625.7 177.3 641.3 166.2 657C155 672.7 147 688.3 155.2 704C163.3 719.7 187.7 735.3 196.5 751C205.3 766.7 198.7 782.3 191.5 798C184.3 813.7 176.7 829.3 178 845C179.3 860.7 189.7 876.3 186.5 892C183.3 907.7 166.7 923.3 168.8 939C171 954.7 192 970.3 180 986C168 1001.7 123 1017.3 122.3 1033C121.7 1048.7 165.3 1064.3 187.2 1072.2L209 1080L0 1080L0 1072.2C0 1064.3 0 1048.7 0 1033C0 1017.3 0 1001.7 0 986C0 970.3 0 954.7 0 939C0 923.3 0 907.7 0 892C0 876.3 0 860.7 0 845C0 829.3 0 813.7 0 798C0 782.3 0 766.7 0 751C0 735.3 0 719.7 0 704C0 688.3 0 672.7 0 657C0 641.3 0 625.7 0 610C0 594.3 0 578.7 0 563.2C0 547.7 0 532.3 0 516.8C0 501.3 0 485.7 0 470C0 454.3 0 438.7 0 423C0 407.3 0 391.7 0 376C0 360.3 0 344.7 0 329C0 313.3 0 297.7 0 282C0 266.3 0 250.7 0 235C0 219.3 0 203.7 0 188C0 172.3 0 156.7 0 141C0 125.3 0 109.7 0 94C0 78.3 0 62.7 0 47C0 31.3 0 15.7 0 7.8L0 0Z" fill="#000000"></path></svg>