<svg id="visual" viewBox="0 0 1920 1080" width="1920" height="1080" xmlns="http://www.w3.org/2000/svg" xmlns:xlink="http://www.w3.org/1999/xlink" version="1.1"><rect x="0" y="0" width="1920" height="1080" fill="#ffffff"></rect><g fill="#000000"><path d="M0 -175.6L39.4 -54.2L167 -54.2L63.8 20.7L103.2 142L0 67.1L-103.2 142L-63.8 20.7L-167 -54.2L-39.4 -54.2Z" transform="translate(721 852)"></path><path d="M0 -11.3L2.5 -3.5L10.8 -3.5L4.1 1.3L6.7 9.2L0 4.3L-6.7 9.2L-4.1 1.3L-10.8 -3.5L-2.5 -3.5Z" transform="translate(717 184)"></path><path d="M0 -129.3L29 -40L123 -40L47 15.3L76 104.6L0 49.4L-76 104.6L-47 15.3L-123 -40L-29 -40Z" transform="translate(1677 800)"></path><path d="M0 -95.3L21.4 -29.5L90.7 -29.5L34.6 11.3L56 77.1L0 36.4L-56 77.1L-34.6 11.3L-90.7 -29.5L-21.4 -29.5Z" transform="translate(72 114)"></path><path d="M0 -10.4L2.3 -3.2L9.9 -3.2L3.8 1.2L6.1 8.4L0 4L-6.1 8.4L-3.8 1.2L-9.9 -3.2L-2.3 -3.2Z" transform="translate(1222 344)"></path><path d="M0 -91.6L20.6 -28.3L87.1 -28.3L33.3 10.8L53.8 74.1L0 35L-53.8 74.1L-33.3 10.8L-87.1 -28.3L-20.6 -28.3Z" transform="translate(96 634)"></path><path d="M0 -34L7.6 -10.5L32.3 -10.5L12.3 4L20 27.5L0 13L-20 27.5L-12.3 4L-32.3 -10.5L-7.6 -10.5Z" transform="translate(340 1044)"></path><path d="M0 -18.9L4.2 -5.8L18 -5.8L6.9 2.2L11.1 15.3L0 7.2L-11.1 15.3L-6.9 2.2L-18 -5.8L-4.2 -5.8Z" transform="translate(1678 290)"></path><path d="M0 -149.1L33.5 -46.1L141.8 -46.1L54.2 17.6L87.7 120.6L0 57L-87.7 120.6L-54.2 17.6L-141.8 -46.1L-33.5 -46.1Z" transform="translate(392 388)"></path><path d="M0 -85.9L19.3 -26.5L81.7 -26.5L31.2 10.1L50.5 69.5L0 32.8L-50.5 69.5L-31.2 10.1L-81.7 -26.5L-19.3 -26.5Z" transform="translate(1208 789)"></path><path d="M0 -60.4L13.6 -18.7L57.4 -18.7L21.9 7.1L35.5 48.9L0 23.1L-35.5 48.9L-21.9 7.1L-57.4 -18.7L-13.6 -18.7Z" transform="translate(1404 20)"></path></g></svg>